<?xml version="1.0" encoding="UTF-8"?>
<svg version="1.1" xmlns="http://www.w3.org/2000/svg" width="512" height="512">
<path d="M0 0 C1.0054184 0.00465271 2.01083679 0.00930542 3.04672241 0.01409912 C17.55398411 0.09270742 31.81520628 0.39095071 46.0625 3.375 C47.03735352 3.57367676 48.01220703 3.77235352 49.01660156 3.97705078 C98.2352554 14.2727109 141.66499696 36.70918433 178.0625 71.375 C178.960896 72.23037354 178.960896 72.23037354 179.87744141 73.10302734 C188.21493043 81.10056198 195.86009045 89.31454073 202.74316406 98.59814453 C204.10318182 100.42978947 205.48399374 102.24440483 206.8671875 104.05859375 C213.2355373 112.48593333 218.86719786 121.18241515 224.0625 130.375 C224.42553223 131.00535156 224.78856445 131.63570312 225.16259766 132.28515625 C240.09721597 158.37297651 249.57135115 187.70768035 254.0625 217.375 C254.23982666 218.49382568 254.41715332 219.61265137 254.59985352 220.76538086 C256.28126341 232.48735947 256.41984341 244.10998976 256.375 255.9375 C256.37284485 256.95790375 256.3706897 257.9783075 256.36846924 259.02963257 C256.31883352 273.65710524 256.07169712 288.00763838 253.0625 302.375 C252.76448486 303.83728027 252.76448486 303.83728027 252.46044922 305.32910156 C242.20888226 354.33696698 219.86967348 398.34114199 185.0625 434.375 C184.46356934 434.99584473 183.86463867 435.61668945 183.24755859 436.25634766 C175.58373497 444.15750259 167.84251606 451.70266955 159.0625 458.375 C158.52222168 458.79168945 157.98194336 459.20837891 157.42529297 459.63769531 C125.5562531 484.13584707 89.00435217 500.62689938 49.625 508.6875 C48.90610596 508.83485596 48.18721191 508.98221191 47.4465332 509.1340332 C31.96804085 512.07599807 16.65647313 512.74737337 0.9375 512.6875 C-0.05606506 512.68567719 -1.04963013 512.68385437 -2.07330322 512.68197632 C-16.567192 512.63719978 -30.67886097 512.17610213 -44.9375 509.375 C-45.83307617 509.21402832 -46.72865234 509.05305664 -47.65136719 508.88720703 C-87.07281931 501.75517164 -124.37351403 485.00712996 -155.9375 460.375 C-156.83339844 459.69050781 -157.72929687 459.00601562 -158.65234375 458.30078125 C-174.48834765 445.96721107 -189.78667551 431.36408132 -201.9375 415.375 C-202.35418945 414.83472168 -202.77087891 414.29444336 -203.20019531 413.73779297 C-210.8834873 403.7427884 -217.62592968 393.28290964 -223.9375 382.375 C-224.33179199 381.69775879 -224.72608398 381.02051758 -225.13232422 380.32275391 C-237.97949417 357.98675736 -246.313869 333.30489778 -251.6875 308.1875 C-251.88641846 307.26251709 -252.08533691 306.33753418 -252.2902832 305.38452148 C-255.55651759 289.29996355 -256.34580601 273.43459144 -256.3125 257.0625 C-256.31195618 256.05298279 -256.31141235 255.04346558 -256.31085205 254.00335693 C-256.27007156 237.48791047 -255.34244321 221.58566065 -251.9375 205.375 C-251.72851074 204.35970215 -251.51952148 203.3444043 -251.30419922 202.29833984 C-243.39231191 165.06209416 -227.22256002 130.43440533 -203.9375 100.375 C-203.25171875 99.47652344 -202.5659375 98.57804687 -201.859375 97.65234375 C-196.58942525 90.89352608 -190.84595326 84.57562952 -184.9375 78.375 C-184.36580078 77.77461914 -183.79410156 77.17423828 -183.20507812 76.55566406 C-175.20904719 68.21965118 -166.99626572 60.57615392 -157.71435547 53.69433594 C-155.88271053 52.33431818 -154.06809517 50.95350626 -152.25390625 49.5703125 C-143.82881761 43.20422582 -135.12779071 37.56930206 -125.9375 32.375 C-125.0412793 31.86308105 -125.0412793 31.86308105 -124.12695312 31.34082031 C-103.09603096 19.40959683 -79.90049544 10.78322818 -56.3125 5.5625 C-55.08321777 5.28853394 -55.08321777 5.28853394 -53.82910156 5.0090332 C-35.9426485 1.3097429 -18.23700511 -0.15143893 0 0 Z M-154.9375 95.375 C-155.79770752 96.19653564 -155.79770752 96.19653564 -156.67529297 97.03466797 C-165.25581605 105.24059796 -172.97938988 113.75048815 -179.9375 123.375 C-180.40333496 124.0129248 -180.86916992 124.65084961 -181.34912109 125.30810547 C-215.33574516 172.39745237 -229.78537986 231.82750541 -221.41845703 289.33325195 C-215.85842012 322.93614904 -203.74073564 355.54032465 -183.9375 383.375 C-183.17824219 384.44621094 -182.41898438 385.51742188 -181.63671875 386.62109375 C-168.08275965 405.13440556 -152.44707925 421.77310348 -133.9375 435.375 C-132.79672052 436.23416992 -131.65609587 437.09354547 -130.515625 437.953125 C-113.88623248 450.32310876 -86.13274856 469.76771817 -64.87890625 468.703125 C-62.03223055 468.22199671 -60.15820062 467.19193687 -57.9375 465.375 C-55.87712697 462.28444045 -55.68950758 461.66573838 -55.71044922 458.17895508 C-55.71060028 457.33831009 -55.71075134 456.4976651 -55.71090698 455.63154602 C-55.72122955 454.72833115 -55.73155212 453.82511627 -55.7421875 452.89453125 C-55.7450174 451.96654221 -55.74784729 451.03855316 -55.75076294 450.08244324 C-55.76196164 447.11733121 -55.78706565 444.15252079 -55.8125 441.1875 C-55.8225302 439.17773874 -55.83165598 437.16797274 -55.83984375 435.15820312 C-55.86189996 430.23035247 -55.89642771 425.30272738 -55.9375 420.375 C-56.6068457 420.44356201 -57.27619141 420.51212402 -57.96582031 420.58276367 C-80.08129296 422.73684311 -100.97029882 422.74732809 -119.1875 408.1875 C-126.75137355 401.10021198 -130.73837665 391.78976771 -134.95043945 382.52099609 C-137.59223919 376.82731856 -140.67127256 372.01266515 -144.9375 367.375 C-145.700625 366.529375 -146.46375 365.68375 -147.25 364.8125 C-150.55128562 361.81831072 -154.01848191 359.07623904 -157.53515625 356.33984375 C-159.84015185 354.4546197 -161.96168738 352.604006 -163.9375 350.375 C-164.1875 347.625 -164.1875 347.625 -163.9375 345.375 C-156.18080368 342.78943456 -147.97171321 344.00125789 -140.53515625 347.05078125 C-131.08250831 351.86949953 -124.47049934 359.53215379 -118.65258789 368.21826172 C-111.46594684 378.93809359 -103.30046162 386.39595273 -90.5 389.6875 C-79.41901897 391.67589904 -69.53988761 389.61363345 -58.9375 386.375 C-58.17050781 386.15585937 -57.40351563 385.93671875 -56.61328125 385.7109375 C-53.82554883 383.48854942 -53.41460277 380.19264115 -52.5625 376.875 C-50.84967726 370.79675895 -48.7859509 365.69772801 -45.26953125 360.390625 C-43.98123518 358.44117992 -42.96291358 356.47115837 -41.9375 354.375 C-42.52950195 354.28524902 -43.12150391 354.19549805 -43.73144531 354.10302734 C-73.36296007 349.51842111 -103.85633044 341.81058521 -123.14941406 316.80419922 C-140.92618938 292.3773792 -145.95384813 258.87211414 -141.9375 229.375 C-139.54581689 215.16446903 -133.93268559 197.22272912 -122.8125 187.5 C-120.45691284 183.57402139 -121.05113472 182.65376581 -122.125 178.3125 C-122.43953125 177.08917969 -122.7540625 175.86585938 -123.078125 174.60546875 C-126.63795177 159.06660149 -124.59208346 139.3901256 -116.9375 125.375 C-95.83494683 123.86767477 -73.94951671 136.03365552 -56.9375 147.375 C-54.57762908 147.25225711 -54.57762908 147.25225711 -51.99609375 146.62890625 C-51.01624512 146.42797363 -50.03639648 146.22704102 -49.02685547 146.02001953 C-47.49762451 145.70073486 -47.49762451 145.70073486 -45.9375 145.375 C-43.97164758 145.02097101 -42.00416266 144.67588838 -40.03515625 144.33984375 C-39.04193359 144.17033203 -38.04871094 144.00082031 -37.02539062 143.82617188 C-36.02701172 143.65666016 -35.02863281 143.48714844 -34 143.3125 C-33.00548828 143.13912109 -32.01097656 142.96574219 -30.98632812 142.78710938 C-4.71805436 138.34380448 22.7435893 139.44733988 48.54541016 146.19238281 C53.46435839 147.44517557 56.73760844 147.52839364 61.31982422 145.25512695 C62.45701904 144.56616333 62.45701904 144.56616333 63.6171875 143.86328125 C64.47183594 143.35531006 65.32648438 142.84733887 66.20703125 142.32397461 C67.10808594 141.78393799 68.00914062 141.24390137 68.9375 140.6875 C83.77278635 132.02292543 99.44455547 124.47917231 117.0625 125.375 C122.96750833 135.49787143 124.2548398 147.85119686 124.3125 159.375 C124.32224854 160.20588135 124.33199707 161.0367627 124.34204102 161.89282227 C124.32031927 167.42339174 123.50739317 172.00099461 122 177.3125 C121.03285725 181.54713905 120.59987344 183.46516776 122.5859375 187.37109375 C124.15349856 189.34258266 125.77424067 191.27261211 127.4375 193.1640625 C142.25558807 210.29611887 143.97574544 235.95042313 142.61303711 257.39819336 C140.5431622 284.37025569 133.11496876 308.62937529 113.0703125 327.80859375 C92.90441118 345.01508358 67.55662156 350.39017045 42.0625 354.375 C42.0625 355.035 42.0625 355.695 42.0625 356.375 C42.7225 356.375 43.3825 356.375 44.0625 356.375 C44.34222656 356.94089844 44.62195313 357.50679688 44.91015625 358.08984375 C45.66800663 359.59269959 46.44623567 361.08548089 47.24609375 362.56640625 C54.56832881 376.41250184 55.19307817 390.03783409 55.23116493 405.42838478 C55.23842665 407.75358791 55.25415705 410.07859149 55.27250671 412.4037323 C55.324568 419.00667842 55.37301932 425.60949879 55.38842773 432.21264648 C55.3985108 436.27036936 55.42781988 440.32756292 55.46974754 444.38507652 C55.48203413 445.92437426 55.48718307 447.46374666 55.48494911 449.00309181 C55.48259438 451.15213409 55.50476379 453.29965058 55.5324707 455.44848633 C55.54127007 457.27854973 55.54127007 457.27854973 55.55024719 459.14558411 C56.15812595 462.97785852 57.3699506 464.63389974 60.0625 467.375 C64.30915176 469.49832588 69.86899356 468.90457842 74.38427734 467.81445312 C76.72027586 467.00720105 78.97897158 466.10017323 81.25 465.125 C82.09369141 464.774375 82.93738281 464.42375 83.80664062 464.0625 C98.85535608 457.64288727 113.88076936 450.12639723 127.0625 440.375 C128.08859375 439.61960937 129.1146875 438.86421875 130.171875 438.0859375 C146.80947079 425.64090572 162.37284549 411.8954936 175.0625 395.375 C175.4941748 394.81441895 175.92584961 394.25383789 176.37060547 393.67626953 C183.29781237 384.62442409 189.46023013 375.29802362 195.0625 365.375 C195.62300049 364.39756836 195.62300049 364.39756836 196.19482422 363.40039062 C224.64427318 313.46523842 230.72092938 251.44098283 215.7890625 196.296875 C207.83452568 168.313787 195.22643102 142.16188097 177.0625 119.375 C176.36898438 118.48941406 175.67546875 117.60382813 174.9609375 116.69140625 C166.56927653 106.17894369 157.51910576 95.87759357 147.0625 87.375 C145.91342062 86.40310214 144.76505672 85.43035809 143.6171875 84.45703125 C107.00288293 53.70321998 59.21381074 33.69874737 11.0625 32.375 C10.31983887 32.34921875 9.57717773 32.3234375 8.81201172 32.296875 C-52.28750799 30.3901219 -111.1027958 52.81125068 -154.9375 95.375 Z " fill="#0C2535" transform="translate(255.9375,-0.375)"/>
</svg>
